# xmcd CD database file
# Copyright (C) 1996 Ti Kan
#
# Track frame offsets:
# 	150
# 	11625
# 	22790
# 	33783
# 	39990
# 	48648
# 	60073
# 	71810
# 	83343
#
# Disc length: 1273 seconds
#
# Revision: 1
# Processed by: cddbd v1.4b41PL1 Copyright (c) Steve Scherf et al.
# Submitted via: DiscPlay 3.4.1
#
DISCID=5a04f709
DTITLE=Patsy Cline - At Her Best
DYEAR=1900
DGENRE=
TTITLE0=Walkin' After Midnight
TTITLE1=Just Out Of Reach
TTITLE2=Stop The World
TTITLE3=Too Many Secrets
TTITLE4=Ain't No Wheels On the Ship
TTITLE5=In Care Of The Blues
TTITLE6=Today, Tomorrow and Forever
TTITLE7=I've Loved And Lost Again
TTITLE8=Just A Closer Walk
EXTD=
EXTT0=
EXTT1=
EXTT2=
EXTT3=
EXTT4=
EXTT5=
EXTT6=
EXTT7=
EXTT8=
PLAYORDER=
